<svg xmlns="http://www.w3.org/2000/svg" version="1.1" xmlns:xlink="http://www.w3.org/1999/xlink" xmlns:svgjs="http://svgjs.dev/svgjs" width="1500" height="1500" viewBox="0 0 1500 1500"><rect width="1500" height="1500" fill="#2200aa"></rect><g transform="matrix(0.6666666666666666,0,0,0.6666666666666666,249.39393939393938,603.7719817853123)"><svg viewBox="0 0 396 116" data-background-color="#2200aa" preserveAspectRatio="xMidYMid meet" height="439" width="1500" xmlns="http://www.w3.org/2000/svg" xmlns:xlink="http://www.w3.org/1999/xlink"><g id="tight-bounds" transform="matrix(1,0,0,1,0.2400000000000091,-0.041742211034915044)"><svg viewBox="0 0 395.52 116.08348442206982" height="116.08348442206982" width="395.52"><g><svg viewBox="0 0 589.9511997842403 173.14823753523277" height="116.08348442206982" width="395.52"><g transform="matrix(1,0,0,1,194.43119978424028,54.66915515323776)"><svg viewBox="0 0 395.52 63.809927228757246" height="63.809927228757246" width="395.52"><g id="textblocktransform"><svg viewBox="0 0 395.52 63.809927228757246" height="63.809927228757246" width="395.52" id="textblock"><g><svg viewBox="0 0 395.52 36.06120444095548" height="36.06120444095548" width="395.52"><g transform="matrix(1,0,0,1,0,0)"><svg width="395.52" viewBox="3.5 -40.2 446.77 40.650000000000006" height="36.06120444095548" data-palette-color="#0d4c92"><g class="wordmark-text-0" data-fill-palette-color="primary" id="text-0"><path d="M30.4-18.25Q33.4-17.2 35.1-14.98 36.8-12.75 36.8-9.6L36.8-9.6Q36.8-5 33.1-2.5 29.4 0 22.4 0L22.4 0 3.5 0 3.5-35 21.4-35Q28.1-35 31.6-32.52 35.1-30.05 35.1-25.85L35.1-25.85Q35.1-23.35 33.88-21.38 32.65-19.4 30.4-18.25L30.4-18.25ZM20.1-27.85L13.3-27.85 13.3-21.1 20.1-21.1Q25.1-21.1 25.1-24.5L25.1-24.5Q25.1-27.85 20.1-27.85L20.1-27.85ZM21.6-7.15Q26.8-7.15 26.8-10.7L26.8-10.7Q26.8-14.25 21.6-14.25L21.6-14.25 13.3-14.25 13.3-7.15 21.6-7.15ZM56-6.8Q57.95-6.8 59.37-7.35 60.8-7.9 62.25-9.15L62.25-9.15 67.2-3.95Q63.35 0.45 55.7 0.45L55.7 0.45Q50.95 0.45 47.35-1.35 43.75-3.15 41.77-6.35 39.8-9.55 39.8-13.6L39.8-13.6Q39.8-17.6 41.75-20.78 43.7-23.95 47.12-25.75 50.55-27.55 54.8-27.55L54.8-27.55Q58.75-27.55 62.02-25.93 65.3-24.3 67.25-21.18 69.2-18.05 69.2-13.75L69.2-13.75 49.85-10.05Q51.4-6.8 56-6.8L56-6.8ZM54.85-20.8Q52.4-20.8 50.85-19.28 49.3-17.75 49.1-14.9L49.1-14.9 60.1-17.05Q59.6-18.75 58.2-19.78 56.8-20.8 54.85-20.8L54.85-20.8ZM84.15 0.45Q79.15 0.45 76.37-2.13 73.6-4.7 73.6-9.5L73.6-9.5 73.6-37.1 83.1-37.1 83.1-10Q83.1-8.5 83.87-7.7 84.65-6.9 86.05-6.9L86.05-6.9Q87.2-6.9 88.2-7.4L88.2-7.4 88.6-0.25Q86.45 0.45 84.15 0.45L84.15 0.45ZM102.54 0.45Q97.54 0.45 94.77-2.13 91.99-4.7 91.99-9.5L91.99-9.5 91.99-37.1 101.49-37.1 101.49-10Q101.49-8.5 102.27-7.7 103.04-6.9 104.44-6.9L104.44-6.9Q105.59-6.9 106.59-7.4L106.59-7.4 106.99-0.25Q104.84 0.45 102.54 0.45L102.54 0.45ZM124.89-6.8Q126.84-6.8 128.27-7.35 129.69-7.9 131.14-9.15L131.14-9.15 136.09-3.95Q132.24 0.45 124.59 0.45L124.59 0.45Q119.84 0.45 116.24-1.35 112.64-3.15 110.67-6.35 108.69-9.55 108.69-13.6L108.69-13.6Q108.69-17.6 110.64-20.78 112.59-23.95 116.02-25.75 119.44-27.55 123.69-27.55L123.69-27.55Q127.64-27.55 130.92-25.93 134.19-24.3 136.14-21.18 138.09-18.05 138.09-13.75L138.09-13.75 118.74-10.05Q120.29-6.8 124.89-6.8L124.89-6.8ZM123.74-20.8Q121.29-20.8 119.74-19.28 118.19-17.75 117.99-14.9L117.99-14.9 128.99-17.05Q128.49-18.75 127.09-19.78 125.69-20.8 123.74-20.8L123.74-20.8ZM161.99-27.1L171.04-27.1 159.84 0 150.04 0 138.89-27.1 148.64-27.1 155.14-10.55 161.99-27.1ZM173.49 0L173.49-27.1 182.99-27.1 182.99 0 173.49 0ZM178.24-30.1Q175.64-30.1 174.04-31.55 172.44-33 172.44-35.15L172.44-35.15Q172.44-37.3 174.04-38.75 175.64-40.2 178.24-40.2L178.24-40.2Q180.84-40.2 182.44-38.83 184.04-37.45 184.04-35.3L184.04-35.3Q184.04-33.05 182.44-31.58 180.84-30.1 178.24-30.1L178.24-30.1ZM199.68 0.45Q194.68 0.45 191.91-2.13 189.13-4.7 189.13-9.5L189.13-9.5 189.13-37.1 198.63-37.1 198.63-10Q198.63-8.5 199.41-7.7 200.18-6.9 201.58-6.9L201.58-6.9Q202.73-6.9 203.73-7.4L203.73-7.4 204.13-0.25Q201.98 0.45 199.68 0.45L199.68 0.45ZM218.08 0.45Q213.08 0.45 210.31-2.13 207.53-4.7 207.53-9.5L207.53-9.5 207.53-37.1 217.03-37.1 217.03-10Q217.03-8.5 217.81-7.7 218.58-6.9 219.98-6.9L219.98-6.9Q221.13-6.9 222.13-7.4L222.13-7.4 222.53-0.25Q220.38 0.45 218.08 0.45L218.08 0.45ZM240.43-6.8Q242.38-6.8 243.8-7.35 245.23-7.9 246.68-9.15L246.68-9.15 251.63-3.95Q247.78 0.45 240.13 0.45L240.13 0.45Q235.38 0.45 231.78-1.35 228.18-3.15 226.2-6.35 224.23-9.55 224.23-13.6L224.23-13.6Q224.23-17.6 226.18-20.78 228.13-23.95 231.55-25.75 234.98-27.55 239.23-27.55L239.23-27.55Q243.18-27.55 246.45-25.93 249.73-24.3 251.68-21.18 253.63-18.05 253.63-13.75L253.63-13.75 234.28-10.05Q235.83-6.8 240.43-6.8L240.43-6.8ZM239.28-20.8Q236.83-20.8 235.28-19.28 233.73-17.75 233.53-14.9L233.53-14.9 244.53-17.05Q244.03-18.75 242.63-19.78 241.23-20.8 239.28-20.8L239.28-20.8Z" fill="#0d4c92" data-fill-palette-color="primary"></path><path d="M271.68 0L271.68-35 288.23-35Q293.98-35 298.43-32.85 302.88-30.7 305.33-26.75 307.78-22.8 307.78-17.5L307.78-17.5Q307.78-12.2 305.33-8.25 302.88-4.3 298.43-2.15 293.98 0 288.23 0L288.23 0 271.68 0ZM281.58-7.9L287.83-7.9Q292.33-7.9 295.05-10.45 297.78-13 297.78-17.5L297.78-17.5Q297.78-22 295.05-24.55 292.33-27.1 287.83-27.1L287.83-27.1 281.58-27.1 281.58-7.9ZM327.03-6.8Q328.97-6.8 330.4-7.35 331.83-7.9 333.28-9.15L333.28-9.15 338.22-3.95Q334.38 0.45 326.72 0.45L326.72 0.45Q321.97 0.45 318.38-1.35 314.78-3.15 312.8-6.35 310.83-9.55 310.83-13.6L310.83-13.6Q310.83-17.6 312.78-20.78 314.73-23.95 318.15-25.75 321.58-27.55 325.83-27.55L325.83-27.55Q329.78-27.55 333.05-25.93 336.33-24.3 338.28-21.18 340.22-18.05 340.22-13.75L340.22-13.75 320.88-10.05Q322.43-6.8 327.03-6.8L327.03-6.8ZM325.88-20.8Q323.43-20.8 321.88-19.28 320.33-17.75 320.13-14.9L320.13-14.9 331.13-17.05Q330.63-18.75 329.22-19.78 327.83-20.8 325.88-20.8L325.88-20.8ZM362.27-27.55Q367.32-27.55 370.4-24.55 373.47-21.55 373.47-15.5L373.47-15.5 373.47 0 363.97 0 363.97-13.95Q363.97-19.5 359.52-19.5L359.52-19.5Q357.07-19.5 355.6-17.9 354.12-16.3 354.12-13.1L354.12-13.1 354.12 0 344.62 0 344.62-27.1 353.67-27.1 353.67-24.15Q355.27-25.8 357.47-26.68 359.67-27.55 362.27-27.55L362.27-27.55ZM394.52-7.75L396.87-1.1Q395.67-0.35 393.94 0.05 392.22 0.45 390.27 0.45L390.27 0.45Q384.97 0.45 382.15-2.15 379.32-4.75 379.32-9.9L379.32-9.9 379.32-33.15 388.82-33.15 388.82-26.1 394.97-26.1 394.97-19 388.82-19 388.82-10Q388.82-8.5 389.57-7.7 390.32-6.9 391.62-6.9L391.62-6.9Q393.27-6.9 394.52-7.75L394.52-7.75ZM419.67-27.1L429.17-27.1 429.17 0 420.12 0 420.12-2.7Q417.47 0.45 412.12 0.45L412.12 0.45Q408.42 0.45 405.39-1.28 402.37-3 400.59-6.2 398.82-9.4 398.82-13.6L398.82-13.6Q398.82-17.8 400.59-20.98 402.37-24.15 405.39-25.85 408.42-27.55 412.12-27.55L412.12-27.55Q416.92-27.55 419.67-24.75L419.67-24.75 419.67-27.1ZM414.12-7.1Q416.62-7.1 418.22-8.83 419.82-10.55 419.82-13.6L419.82-13.6Q419.82-16.6 418.22-18.3 416.62-20 414.12-20L414.12-20Q411.62-20 410.02-18.3 408.42-16.6 408.42-13.6L408.42-13.6Q408.42-10.55 410.02-8.83 411.62-7.1 414.12-7.1L414.12-7.1ZM445.82 0.45Q440.82 0.45 438.04-2.13 435.27-4.7 435.27-9.5L435.27-9.5 435.27-37.1 444.77-37.1 444.77-10Q444.77-8.5 445.54-7.7 446.32-6.9 447.72-6.9L447.72-6.9Q448.87-6.9 449.87-7.4L449.87-7.4 450.27-0.25Q448.12 0.45 445.82 0.45L445.82 0.45Z" fill="#000000" data-fill-palette-color="accent"></path></g></svg></g></svg></g><g transform="matrix(1,0,0,1,37.57439999999997,44.57438934055848)"><svg viewBox="0 0 320.37120000000004 19.23553788819876" height="19.23553788819876" width="320.37120000000004"><g transform="matrix(1,0,0,1,0,0)"><svg width="320.37120000000004" viewBox="-0.55 -37.1 627.8399999999999 37.7" height="19.23553788819876" data-palette-color="#0d4c92"><path d="M32.4-31.25L29.65-25.2Q25.15-27.8 20-28.55L20-28.55 20 0 11.9 0 11.9-28.55Q6.75-27.8 2.2-25.2L2.2-25.2-0.55-31.25Q3.05-33.4 7.25-34.5 11.45-35.6 15.9-35.6L15.9-35.6Q20.4-35.6 24.63-34.5 28.85-33.4 32.4-31.25L32.4-31.25ZM51.85-27.3Q56.85-27.3 59.92-24.3 63-21.3 63-15.4L63-15.4 63 0 55.2 0 55.2-14.2Q55.2-17.4 53.8-18.98 52.4-20.55 49.75-20.55L49.75-20.55Q46.8-20.55 45.05-18.73 43.3-16.9 43.3-13.3L43.3-13.3 43.3 0 35.5 0 35.5-37.1 43.3-37.1 43.3-24.1Q44.85-25.65 47.05-26.48 49.25-27.3 51.85-27.3L51.85-27.3ZM83.9-5.85Q86-5.85 87.62-6.48 89.25-7.1 90.65-8.45L90.65-8.45 94.8-3.95Q91 0.4 83.7 0.4L83.7 0.4Q79.15 0.4 75.65-1.38 72.15-3.15 70.25-6.3 68.34-9.45 68.34-13.45L68.34-13.45Q68.34-17.4 70.22-20.58 72.09-23.75 75.37-25.53 78.65-27.3 82.75-27.3L82.75-27.3Q86.59-27.3 89.75-25.68 92.9-24.05 94.77-20.98 96.65-17.9 96.65-13.7L96.65-13.7 76.75-9.85Q77.59-7.85 79.42-6.85 81.25-5.85 83.9-5.85L83.9-5.85ZM82.75-21.4Q79.8-21.4 77.95-19.5 76.09-17.6 76-14.25L76-14.25 89.09-16.8Q88.55-18.9 86.84-20.15 85.15-21.4 82.75-21.4L82.75-21.4ZM142.29-18.2Q145.29-17.25 146.99-15.03 148.69-12.8 148.69-9.55L148.69-9.55Q148.69-4.95 145.12-2.48 141.54 0 134.69 0L134.69 0 116.59 0 116.59-35 133.69-35Q140.09-35 143.52-32.55 146.94-30.1 146.94-25.9L146.94-25.9Q146.94-23.35 145.72-21.35 144.49-19.35 142.29-18.2L142.29-18.2ZM132.69-28.9L124.64-28.9 124.64-20.65 132.69-20.65Q135.69-20.65 137.24-21.7 138.79-22.75 138.79-24.8L138.79-24.8Q138.79-26.85 137.24-27.88 135.69-28.9 132.69-28.9L132.69-28.9ZM134.09-6.1Q137.29-6.1 138.92-7.15 140.54-8.2 140.54-10.4L140.54-10.4Q140.54-14.75 134.09-14.75L134.09-14.75 124.64-14.75 124.64-6.1 134.09-6.1ZM167.84-5.85Q169.94-5.85 171.56-6.48 173.19-7.1 174.59-8.45L174.59-8.45 178.74-3.95Q174.94 0.4 167.64 0.4L167.64 0.4Q163.09 0.4 159.59-1.38 156.09-3.15 154.19-6.3 152.29-9.45 152.29-13.45L152.29-13.45Q152.29-17.4 154.16-20.58 156.04-23.75 159.31-25.53 162.59-27.3 166.69-27.3L166.69-27.3Q170.54-27.3 173.69-25.68 176.84-24.05 178.71-20.98 180.59-17.9 180.59-13.7L180.59-13.7 160.69-9.85Q161.54-7.85 163.36-6.85 165.19-5.85 167.84-5.85L167.84-5.85ZM166.69-21.4Q163.74-21.4 161.89-19.5 160.04-17.6 159.94-14.25L159.94-14.25 173.04-16.8Q172.49-18.9 170.79-20.15 169.09-21.4 166.69-21.4L166.69-21.4ZM194.89 0.4Q191.54 0.4 188.34-0.43 185.14-1.25 183.24-2.5L183.24-2.5 185.84-8.1Q187.64-6.95 190.19-6.23 192.74-5.5 195.19-5.5L195.19-5.5Q200.14-5.5 200.14-7.95L200.14-7.95Q200.14-9.1 198.79-9.6 197.44-10.1 194.64-10.45L194.64-10.45Q191.34-10.95 189.19-11.6 187.04-12.25 185.46-13.9 183.89-15.55 183.89-18.6L183.89-18.6Q183.89-21.15 185.36-23.13 186.84-25.1 189.66-26.2 192.49-27.3 196.34-27.3L196.34-27.3Q199.19-27.3 202.01-26.68 204.84-26.05 206.69-24.95L206.69-24.95 204.09-19.4Q200.54-21.4 196.34-21.4L196.34-21.4Q193.84-21.4 192.59-20.7 191.34-20 191.34-18.9L191.34-18.9Q191.34-17.65 192.69-17.15 194.04-16.65 196.99-16.2L196.99-16.2Q200.29-15.65 202.39-15.03 204.49-14.4 206.04-12.75 207.59-11.1 207.59-8.15L207.59-8.15Q207.59-5.65 206.09-3.7 204.59-1.75 201.71-0.68 198.84 0.4 194.89 0.4L194.89 0.4ZM226.53-6.8L228.58-1.3Q227.43-0.45 225.76-0.03 224.08 0.4 222.28 0.4L222.28 0.4Q217.43 0.4 214.83-2.05 212.23-4.5 212.23-9.25L212.23-9.25 212.23-32.85 220.03-32.85 220.03-26.3 226.68-26.3 226.68-20.3 220.03-20.3 220.03-9.35Q220.03-7.65 220.88-6.73 221.73-5.8 223.33-5.8L223.33-5.8Q225.13-5.8 226.53-6.8L226.53-6.8ZM266.63-26.9L274.43-26.9 274.43 0 266.98 0 266.98-3.1Q264.08 0.4 258.58 0.4L258.58 0.4Q254.78 0.4 251.7-1.3 248.63-3 246.88-6.15 245.13-9.3 245.13-13.45L245.13-13.45Q245.13-17.6 246.88-20.75 248.63-23.9 251.7-25.6 254.78-27.3 258.58-27.3L258.58-27.3Q263.73-27.3 266.63-24.05L266.63-24.05 266.63-26.9ZM259.93-6Q262.88-6 264.83-8.03 266.78-10.05 266.78-13.45L266.78-13.45Q266.78-16.85 264.83-18.88 262.88-20.9 259.93-20.9L259.93-20.9Q256.93-20.9 254.98-18.88 253.03-16.85 253.03-13.45L253.03-13.45Q253.03-10.05 254.98-8.03 256.93-6 259.93-6L259.93-6ZM295.78-6.8L297.83-1.3Q296.68-0.45 295-0.03 293.33 0.4 291.53 0.4L291.53 0.4Q286.68 0.4 284.08-2.05 281.48-4.5 281.48-9.25L281.48-9.25 281.48-32.85 289.28-32.85 289.28-26.3 295.93-26.3 295.93-20.3 289.28-20.3 289.28-9.35Q289.28-7.65 290.13-6.73 290.98-5.8 292.58-5.8L292.58-5.8Q294.38-5.8 295.78-6.8L295.78-6.8ZM316.92 0L316.92-35 332.82-35Q338.52-35 342.9-32.83 347.27-30.65 349.7-26.7 352.12-22.75 352.12-17.5L352.12-17.5Q352.12-12.25 349.7-8.3 347.27-4.35 342.9-2.18 338.52 0 332.82 0L332.82 0 316.92 0ZM325.02-6.65L332.42-6.65Q337.67-6.65 340.8-9.58 343.92-12.5 343.92-17.5L343.92-17.5Q343.92-22.5 340.8-25.43 337.67-28.35 332.42-28.35L332.42-28.35 325.02-28.35 325.02-6.65ZM371.22-5.85Q373.32-5.85 374.94-6.48 376.57-7.1 377.97-8.45L377.97-8.45 382.12-3.95Q378.32 0.4 371.02 0.4L371.02 0.4Q366.47 0.4 362.97-1.38 359.47-3.15 357.57-6.3 355.67-9.45 355.67-13.45L355.67-13.45Q355.67-17.4 357.54-20.58 359.42-23.75 362.69-25.53 365.97-27.3 370.07-27.3L370.07-27.3Q373.92-27.3 377.07-25.68 380.22-24.05 382.09-20.98 383.97-17.9 383.97-13.7L383.97-13.7 364.07-9.85Q364.92-7.85 366.74-6.85 368.57-5.85 371.22-5.85L371.22-5.85ZM370.07-21.4Q367.12-21.4 365.27-19.5 363.42-17.6 363.32-14.25L363.32-14.25 376.42-16.8Q375.87-18.9 374.17-20.15 372.47-21.4 370.07-21.4L370.07-21.4ZM405.57-27.3Q410.57-27.3 413.64-24.3 416.72-21.3 416.72-15.4L416.72-15.4 416.72 0 408.92 0 408.92-14.2Q408.92-17.4 407.52-18.98 406.12-20.55 403.47-20.55L403.47-20.55Q400.52-20.55 398.77-18.73 397.02-16.9 397.02-13.3L397.02-13.3 397.02 0 389.22 0 389.22-26.9 396.67-26.9 396.67-23.75Q398.22-25.45 400.52-26.38 402.82-27.3 405.57-27.3L405.57-27.3ZM437.91-6.8L439.96-1.3Q438.81-0.45 437.14-0.03 435.46 0.4 433.66 0.4L433.66 0.4Q428.81 0.4 426.21-2.05 423.61-4.5 423.61-9.25L423.61-9.25 423.61-32.85 431.41-32.85 431.41-26.3 438.06-26.3 438.06-20.3 431.41-20.3 431.41-9.35Q431.41-7.65 432.26-6.73 433.11-5.8 434.71-5.8L434.71-5.8Q436.51-5.8 437.91-6.8L437.91-6.8ZM463.01-26.9L470.81-26.9 470.81 0 463.36 0 463.36-3.1Q460.46 0.4 454.96 0.4L454.96 0.4Q451.16 0.4 448.09-1.3 445.01-3 443.26-6.15 441.51-9.3 441.51-13.45L441.51-13.45Q441.51-17.6 443.26-20.75 445.01-23.9 448.09-25.6 451.16-27.3 454.96-27.3L454.96-27.3Q460.11-27.3 463.01-24.05L463.01-24.05 463.01-26.9ZM456.31-6Q459.26-6 461.21-8.03 463.16-10.05 463.16-13.45L463.16-13.45Q463.16-16.85 461.21-18.88 459.26-20.9 456.31-20.9L456.31-20.9Q453.31-20.9 451.36-18.88 449.41-16.85 449.41-13.45L449.41-13.45Q449.41-10.05 451.36-8.03 453.31-6 456.31-6L456.31-6ZM487.66 0.4Q483.11 0.4 480.56-2.02 478.01-4.45 478.01-8.9L478.01-8.9 478.01-37.1 485.81-37.1 485.81-9.35Q485.81-7.65 486.68-6.73 487.56-5.8 489.16-5.8L489.16-5.8Q489.76-5.8 490.38-5.95 491.01-6.1 491.36-6.3L491.36-6.3 491.71-0.25Q489.76 0.4 487.66 0.4L487.66 0.4ZM527 0.6Q521.65 0.6 517.33-1.73 513-4.05 510.53-8.18 508.05-12.3 508.05-17.5L508.05-17.5Q508.05-22.7 510.53-26.83 513-30.95 517.33-33.27 521.65-35.6 527.05-35.6L527.05-35.6Q531.6-35.6 535.28-34 538.95-32.4 541.45-29.4L541.45-29.4 536.25-24.6Q532.7-28.7 527.45-28.7L527.45-28.7Q524.2-28.7 521.65-27.28 519.1-25.85 517.68-23.3 516.25-20.75 516.25-17.5L516.25-17.5Q516.25-14.25 517.68-11.7 519.1-9.15 521.65-7.73 524.2-6.3 527.45-6.3L527.45-6.3Q532.7-6.3 536.25-10.45L536.25-10.45 541.45-5.65Q538.95-2.6 535.25-1 531.55 0.6 527 0.6L527 0.6ZM564.9-26.9L572.7-26.9 572.7 0 565.25 0 565.25-3.1Q562.35 0.4 556.85 0.4L556.85 0.4Q553.05 0.4 549.97-1.3 546.9-3 545.15-6.15 543.4-9.3 543.4-13.45L543.4-13.45Q543.4-17.6 545.15-20.75 546.9-23.9 549.97-25.6 553.05-27.3 556.85-27.3L556.85-27.3Q562-27.3 564.9-24.05L564.9-24.05 564.9-26.9ZM558.2-6Q561.15-6 563.1-8.03 565.05-10.05 565.05-13.45L565.05-13.45Q565.05-16.85 563.1-18.88 561.15-20.9 558.2-20.9L558.2-20.9Q555.2-20.9 553.25-18.88 551.3-16.85 551.3-13.45L551.3-13.45Q551.3-10.05 553.25-8.03 555.2-6 558.2-6L558.2-6ZM587.35-23.35Q588.75-25.3 591.12-26.3 593.5-27.3 596.6-27.3L596.6-27.3 596.6-20.1Q595.3-20.2 594.85-20.2L594.85-20.2Q591.5-20.2 589.6-18.32 587.7-16.45 587.7-12.7L587.7-12.7 587.7 0 579.9 0 579.9-26.9 587.35-26.9 587.35-23.35ZM614.54-5.85Q616.64-5.85 618.27-6.48 619.89-7.1 621.29-8.45L621.29-8.45 625.44-3.95Q621.64 0.4 614.34 0.4L614.34 0.4Q609.79 0.4 606.29-1.38 602.79-3.15 600.89-6.3 598.99-9.45 598.99-13.45L598.99-13.45Q598.99-17.4 600.87-20.58 602.74-23.75 606.02-25.53 609.29-27.3 613.39-27.3L613.39-27.3Q617.24-27.3 620.39-25.68 623.54-24.05 625.42-20.98 627.29-17.9 627.29-13.7L627.29-13.7 607.39-9.85Q608.24-7.85 610.07-6.85 611.89-5.85 614.54-5.85L614.54-5.85ZM613.39-21.4Q610.44-21.4 608.59-19.5 606.74-17.6 606.64-14.25L606.64-14.25 619.74-16.8Q619.19-18.9 617.49-20.15 615.79-21.4 613.39-21.4L613.39-21.4Z" opacity="1" transform="matrix(1,0,0,1,0,0)" fill="#0d4c92" class="slogan-text-1" data-fill-palette-color="secondary" id="text-1"></path></svg></g></svg></g></svg></g></svg></g><g><svg viewBox="0 0 173.14823753523277 173.14823753523277" height="173.14823753523277" width="173.14823753523277"><g><svg viewBox="0 0 173.14823753523277 173.14823753523277" height="173.14823753523277" width="173.14823753523277"><g transform="matrix(1,0,0,1,45.76268779706232,46.0993074412334)"><svg viewBox="0 0 81.62286194110813 80.94962265276597" height="80.94962265276597" width="81.62286194110813"><g><svg xmlns="http://www.w3.org/2000/svg" xmlns:xlink="http://www.w3.org/1999/xlink" version="1.1" x="0" y="0" viewBox="0.29600000000000015 0.558 63.407999999999994 62.885" enable-background="new 0 0 64 64" xml:space="preserve" height="80.94962265276597" width="81.62286194110813" class="icon-cg-0" data-fill-palette-color="accent" id="cg-0"><g fill="#000000" data-fill-palette-color="accent"><path fill="#000000" d="M44.067 63.442L44.067 63.442c-0.057 0-0.114-0.001-0.172-0.003-2.439-0.081-4.503-1.707-5.142-4.046-0.07-0.254-0.139-0.513-0.205-0.765-0.073-0.278-0.145-0.548-0.218-0.805-0.578-2.044-1.024-4.07-1.42-5.954-0.398-1.896-0.702-3.817-0.996-5.675-0.294-1.86-0.598-3.784-0.991-5.627-0.253-1.181-0.818-2.402-1.549-3.348-0.377-0.487-0.861-0.795-1.374-0.878-0.514 0.083-0.997 0.392-1.377 0.881-0.728 0.943-1.293 2.164-1.547 3.348-0.393 1.84-0.697 3.764-0.991 5.624-0.294 1.858-0.598 3.779-0.996 5.675-0.396 1.885-0.842 3.912-1.42 5.954-0.073 0.258-0.144 0.529-0.218 0.806-0.067 0.252-0.135 0.51-0.207 0.771-0.637 2.333-2.702 3.959-5.136 4.04-0.062 0.002-0.119 0.003-0.176 0.003-2.127 0-4.087-1.242-4.993-3.164-0.74-1.563-1.403-2.977-2.026-4.446-0.634-1.495-1.262-3.015-1.869-4.484C8.855 46.05 6.592 40.571 3.74 35.521c-2.257-3.995-3.383-8.592-3.443-14.054l-0.001-0.103 0.009-0.102c0.035-0.424 0.066-0.848 0.097-1.273 0.068-0.943 0.138-1.918 0.261-2.898C1.331 11.799 3.64 7.562 7.525 4.496c3.307-2.613 7.134-3.938 11.375-3.938 2.076 0 4.291 0.321 6.585 0.954 2.208 0.61 4.4 0.926 6.515 0.939 2.115-0.013 4.307-0.329 6.515-0.939 2.294-0.633 4.509-0.954 6.585-0.954 4.241 0 8.069 1.325 11.376 3.939 3.884 3.065 6.193 7.302 6.861 12.592 0.123 0.984 0.194 1.961 0.262 2.905 0.03 0.423 0.061 0.846 0.096 1.269l0.009 0.102-0.001 0.103c-0.06 5.461-1.187 10.058-3.444 14.054-2.851 5.05-5.115 10.529-7.304 15.827-0.607 1.47-1.235 2.989-1.868 4.483-0.622 1.466-1.286 2.882-2.028 4.449C48.154 62.2 46.194 63.442 44.067 63.442zM32 31.967l0.156 0.011c1.822 0.131 3.478 1.046 4.663 2.576 1.133 1.466 1.971 3.277 2.363 5.101 0.418 1.958 0.732 3.941 1.034 5.858 0.285 1.805 0.581 3.671 0.956 5.46 0.38 1.809 0.806 3.747 1.348 5.664 0.079 0.28 0.157 0.575 0.237 0.878 0.063 0.237 0.127 0.48 0.194 0.724 0.132 0.484 0.577 0.83 1.083 0.847l0.032 0c0.45 0 0.864-0.262 1.055-0.667 0.722-1.525 1.366-2.898 1.956-4.288 0.625-1.475 1.249-2.985 1.853-4.446 2.239-5.419 4.555-11.024 7.537-16.306 1.873-3.317 2.815-7.197 2.88-11.861-0.033-0.404-0.062-0.808-0.091-1.212-0.067-0.929-0.13-1.807-0.239-2.675-0.527-4.172-2.241-7.351-5.239-9.717-2.556-2.02-5.394-3.001-8.677-3.001-1.684 0-3.51 0.268-5.426 0.797-2.582 0.713-5.16 1.082-7.662 1.096h-0.025c-2.502-0.014-5.08-0.383-7.662-1.096C22.41 5.181 20.584 4.913 18.9 4.913c-3.283 0-6.121 0.981-8.676 3-2.999 2.367-4.713 5.546-5.241 9.721-0.108 0.864-0.172 1.74-0.238 2.668-0.029 0.406-0.059 0.811-0.092 1.217 0.064 4.663 1.007 8.544 2.88 11.86 2.982 5.283 5.298 10.886 7.537 16.306 0.604 1.461 1.228 2.971 1.853 4.447 0.591 1.392 1.235 2.765 1.955 4.285 0.192 0.408 0.606 0.67 1.056 0.67l0.037-0.001c0.501-0.017 0.945-0.362 1.076-0.841 0.069-0.25 0.133-0.493 0.196-0.73 0.08-0.303 0.158-0.598 0.238-0.879 0.542-1.916 0.968-3.854 1.348-5.664 0.376-1.789 0.671-3.655 0.956-5.46 0.303-1.917 0.617-3.9 1.034-5.856 0.392-1.827 1.231-3.638 2.361-5.101 1.187-1.532 2.843-2.447 4.665-2.578L32 31.967z" data-fill-palette-color="accent"></path><path fill="#000000" d="M14.618 37.255c-0.633 0-1.248-0.332-1.582-0.923-0.303-0.537-0.605-1.057-0.9-1.565-2.244-3.869-4.364-7.524-3.689-12.862 0.525-4.151 2.338-7.476 5.388-9.883 3.88-3.066 8.622-3.854 14.091-2.344 1.713 0.473 3.413 0.718 5.052 0.727 1.618-0.009 3.318-0.254 5.031-0.727 0.967-0.266 1.965 0.3 2.232 1.266 0.267 0.966-0.3 1.965-1.266 2.232-2.021 0.558-4.038 0.847-5.997 0.858-1.98-0.011-3.998-0.3-6.018-0.858-4.353-1.202-7.911-0.648-10.875 1.694-2.309 1.823-3.63 4.273-4.036 7.49-0.521 4.122 1.051 6.834 3.228 10.586 0.302 0.521 0.61 1.053 0.92 1.601 0.493 0.873 0.185 1.98-0.688 2.472C15.227 37.179 14.92 37.255 14.618 37.255z" data-fill-palette-color="accent"></path></g></svg></g></svg></g><g id="text-0"><path d="M12.386 56.088c0.511-0.633 1.108-1.06 1.789-1.283 0.682-0.222 1.406-0.197 2.173 0.074v0c1.11 0.392 1.808 1.145 2.096 2.257 0.29 1.105 0.134 2.506-0.465 4.202v0l-2.424 6.855-12.701-4.491 2.295-6.49c0.573-1.621 1.309-2.75 2.207-3.387 0.898-0.636 1.856-0.775 2.872-0.415v0c0.605 0.214 1.094 0.555 1.469 1.024 0.37 0.461 0.6 1.012 0.689 1.654zM7.574 58.595l-0.873 2.469 2.451 0.867 0.873-2.469c0.428-1.21 0.23-1.96-0.593-2.251v0c-0.811-0.287-1.43 0.175-1.858 1.384zM15.286 60.712c0.445-1.259 0.238-2.041-0.623-2.346v0c-0.86-0.304-1.513 0.173-1.959 1.433v0l-1.065 3.011 2.582 0.913z" fill="#000000" data-fill-palette-color="accent"></path><path d="M21.931 47.55c0.26-0.43 0.425-0.837 0.494-1.22 0.064-0.387 0.056-0.82-0.024-1.301v0l2.706-0.601c0.449 1.431 0.165 2.986-0.852 4.667v0c-0.63 1.041-1.379 1.84-2.249 2.396-0.872 0.547-1.79 0.826-2.756 0.837-0.971 0.008-1.901-0.257-2.789-0.794v0c-0.877-0.53-1.534-1.221-1.97-2.072-0.436-0.851-0.624-1.773-0.565-2.765 0.056-0.987 0.366-1.947 0.931-2.881v0c0.527-0.871 1.186-1.559 1.977-2.062 0.791-0.503 1.657-0.76 2.599-0.77 0.951-0.013 1.895 0.265 2.835 0.834v0l-2.633 7.114c0.918 0.092 1.684-0.369 2.296-1.382zM17.091 45.144c-0.325 0.538-0.423 1.077-0.295 1.619 0.129 0.541 0.493 1.025 1.094 1.45v0l1.479-4.056c-0.439-0.118-0.862-0.089-1.271 0.089-0.411 0.169-0.747 0.468-1.007 0.898z" fill="#000000" data-fill-palette-color="accent"></path><path d="M31.406 39.196c-0.818 0.988-1.707 1.549-2.667 1.681-0.965 0.128-1.924-0.202-2.876-0.99v0l-8.184-6.776 2.335-2.819 8.038 6.655c0.295 0.245 0.585 0.356 0.87 0.334 0.284-0.022 0.541-0.171 0.768-0.446v0c0.19-0.229 0.319-0.483 0.387-0.762v0l2.211 1.638c-0.213 0.537-0.506 1.032-0.882 1.485z" fill="#000000" data-fill-palette-color="accent"></path><path d="M37.419 33.137c-0.927 0.887-1.875 1.34-2.844 1.36-0.973 0.016-1.887-0.423-2.742-1.317v0l-7.343-7.678 2.645-2.53 7.214 7.542c0.265 0.277 0.54 0.421 0.825 0.433 0.285 0.011 0.557-0.107 0.815-0.354v0c0.215-0.206 0.372-0.443 0.472-0.712v0l2.006 1.883c-0.273 0.508-0.623 0.966-1.048 1.373z" fill="#000000" data-fill-palette-color="accent"></path><path d="M43.538 25.027c0.411-0.29 0.725-0.596 0.942-0.92 0.213-0.329 0.38-0.729 0.499-1.202v0l2.72 0.534c-0.163 1.49-1.047 2.802-2.652 3.934v0c-0.994 0.701-2.001 1.132-3.021 1.293-1.018 0.151-1.971 0.039-2.86-0.338-0.893-0.382-1.638-0.997-2.237-1.845v0c-0.591-0.838-0.915-1.734-0.973-2.689-0.058-0.954 0.139-1.874 0.591-2.759 0.447-0.881 1.116-1.637 2.007-2.266v0c0.832-0.587 1.712-0.952 2.638-1.096 0.927-0.144 1.823-0.031 2.69 0.337 0.876 0.37 1.63 1.003 2.263 1.9v0l-5.265 5.461c0.805 0.452 1.69 0.337 2.658-0.344zM40.068 20.882c-0.513 0.362-0.82 0.817-0.919 1.364-0.099 0.548 0.041 1.137 0.421 1.767v0l2.981-3.122c-0.354-0.284-0.754-0.427-1.2-0.428-0.444-0.01-0.872 0.129-1.283 0.419z" fill="#000000" data-fill-palette-color="accent"></path><path d="M54.037 10.472l3.168-1.443 0.406 11.272-3.439 1.568-8.223-7.711 3.412-1.555 4.915 4.759z" fill="#000000" data-fill-palette-color="accent"></path><path d="M63.758 17.778l-3.082-9.96 3.497-1.082 3.082 9.96zM62.087 6.167c-0.638 0.197-1.208 0.18-1.709-0.053-0.501-0.233-0.834-0.614-0.998-1.145v0c-0.162-0.524-0.103-1.027 0.177-1.509 0.282-0.475 0.742-0.811 1.38-1.008v0c0.638-0.197 1.206-0.186 1.703 0.034 0.495 0.214 0.824 0.583 0.987 1.107v0c0.172 0.556 0.118 1.075-0.163 1.556-0.28 0.481-0.74 0.821-1.377 1.018z" fill="#000000" data-fill-palette-color="accent"></path><path d="M75.052 15.23c-1.26 0.241-2.302 0.107-3.127-0.402-0.826-0.515-1.355-1.38-1.588-2.595v0l-1.996-10.436 3.596-0.687 1.96 10.25c0.072 0.377 0.225 0.647 0.459 0.811 0.233 0.164 0.525 0.213 0.876 0.146v0c0.292-0.056 0.553-0.17 0.783-0.342v0l0.662 2.671c-0.506 0.279-1.047 0.473-1.625 0.584z" fill="#000000" data-fill-palette-color="accent"></path><path d="M83.547 14.385c-1.28 0.094-2.299-0.16-3.06-0.761-0.761-0.607-1.186-1.528-1.276-2.761v0l-0.774-10.596 3.65-0.267 0.761 10.408c0.028 0.383 0.148 0.669 0.362 0.859 0.213 0.19 0.497 0.272 0.853 0.246v0c0.297-0.022 0.569-0.105 0.817-0.249v0l0.349 2.73c-0.534 0.218-1.095 0.349-1.682 0.391z" fill="#000000" data-fill-palette-color="accent"></path><path d="M93.429 12.024c0.501 0.038 0.938 0.001 1.312-0.11 0.374-0.118 0.757-0.321 1.15-0.609v0l1.758 2.142c-1.074 1.046-2.59 1.495-4.549 1.347v0c-1.213-0.092-2.264-0.4-3.153-0.925-0.882-0.531-1.546-1.225-1.991-2.081-0.445-0.863-0.629-1.812-0.551-2.847v0c0.077-1.022 0.397-1.92 0.96-2.693 0.563-0.773 1.3-1.357 2.212-1.752 0.905-0.396 1.902-0.552 2.99-0.47v0c1.016 0.077 1.926 0.355 2.733 0.833 0.806 0.479 1.426 1.136 1.86 1.971 0.44 0.842 0.619 1.811 0.536 2.906v0l-7.536 0.862c0.333 0.861 1.089 1.336 2.269 1.426zM93.391 6.619c-0.626-0.047-1.152 0.108-1.578 0.467-0.425 0.359-0.692 0.903-0.8 1.631v0l4.287-0.511c-0.092-0.445-0.31-0.809-0.653-1.094-0.336-0.291-0.755-0.455-1.256-0.493z" fill="#000000" data-fill-palette-color="accent"></path><path d="M108.077 17.437l4.898-12.549 5.933 2.315c1.374 0.536 2.494 1.268 3.36 2.196 0.858 0.931 1.395 1.982 1.613 3.153 0.224 1.173 0.088 2.395-0.408 3.664v0c-0.495 1.269-1.223 2.26-2.182 2.971-0.953 0.714-2.061 1.123-3.322 1.227-1.265 0.095-2.585-0.125-3.959-0.661v0zM112.733 15.985l2.236 0.873c1.078 0.421 2.062 0.457 2.951 0.108 0.891-0.355 1.547-1.072 1.967-2.15v0c0.421-1.078 0.424-2.05 0.009-2.914-0.417-0.859-1.165-1.498-2.243-1.919v0l-2.237-0.873z" fill="#000000" data-fill-palette-color="accent"></path><path d="M129.468 24.929c0.42 0.277 0.819 0.457 1.199 0.542 0.384 0.079 0.818 0.088 1.302 0.026v0l0.495 2.727c-1.447 0.392-2.991 0.048-4.63-1.033v0c-1.016-0.67-1.784-1.45-2.307-2.342-0.512-0.893-0.755-1.821-0.729-2.786 0.03-0.97 0.331-1.889 0.903-2.756v0c0.564-0.856 1.28-1.485 2.148-1.887 0.867-0.402 1.796-0.554 2.785-0.456 0.984 0.094 1.931 0.442 2.842 1.042v0c0.85 0.561 1.511 1.246 1.983 2.057 0.472 0.81 0.694 1.686 0.667 2.627-0.025 0.95-0.339 1.884-0.944 2.8v0l-7.005-2.91c-0.128 0.914 0.303 1.697 1.291 2.349zM132.061 20.187c-0.524-0.346-1.06-0.465-1.606-0.358-0.546 0.107-1.043 0.453-1.491 1.036v0l3.994 1.637c0.135-0.434 0.122-0.858-0.039-1.274-0.152-0.417-0.438-0.765-0.858-1.041z" fill="#000000" data-fill-palette-color="accent"></path><path d="M146.616 28.846c0.935 0.897 1.421 1.895 1.458 2.994 0.037 1.108-0.483 2.222-1.559 3.344v0l-4.127 4.301-2.642-2.534 3.716-3.872c0.989-1.031 1.071-1.942 0.245-2.735v0c-0.453-0.435-0.958-0.635-1.514-0.6-0.56 0.04-1.125 0.355-1.692 0.947v0l-3.489 3.636-2.641-2.534 7.218-7.523 2.513 2.411-0.783 0.816c0.594-0.017 1.171 0.088 1.732 0.315 0.561 0.227 1.083 0.572 1.565 1.034z" fill="#000000" data-fill-palette-color="accent"></path><path d="M150.355 45.164l-1.519 2.249c-0.335-0.13-0.677-0.342-1.026-0.635-0.343-0.297-0.665-0.647-0.964-1.052v0c-0.807-1.089-1.161-2.123-1.063-3.101 0.104-0.982 0.687-1.867 1.749-2.654v0l7.19-5.327 2.179 2.942-2.176 1.612 1.412 1.905-2.201 1.63-1.411-1.906-2.782 2.061c-0.308 0.228-0.488 0.481-0.538 0.757-0.051 0.276 0.025 0.55 0.225 0.821v0c0.252 0.34 0.56 0.573 0.925 0.698z" fill="#000000" data-fill-palette-color="accent"></path><path d="M162.291 51.449l1.695 3.245-9.242 4.826-1.612-3.087 0.924-0.482c-1.031-0.23-1.864-0.955-2.501-2.174v0c-0.438-0.838-0.644-1.704-0.618-2.598 0.035-0.891 0.313-1.73 0.834-2.518 0.516-0.784 1.251-1.426 2.207-1.924v0c0.956-0.499 1.899-0.735 2.831-0.707 0.932 0.028 1.771 0.284 2.516 0.768 0.748 0.49 1.341 1.154 1.779 1.992v0c0.572 1.096 0.701 2.122 0.387 3.077v0zM154.481 53.122c0.297 0.569 0.737 0.932 1.319 1.09 0.583 0.158 1.223 0.055 1.92-0.309v0c0.68-0.355 1.119-0.815 1.316-1.381 0.197-0.566 0.147-1.133-0.15-1.701v0c-0.297-0.569-0.734-0.934-1.31-1.095-0.577-0.161-1.205-0.065-1.886 0.291v0c-0.698 0.364-1.148 0.831-1.35 1.399-0.203 0.569-0.156 1.137 0.141 1.706z" fill="#000000" data-fill-palette-color="accent"></path><path d="M157.093 66.816c-0.407-1.217-0.414-2.268-0.019-3.153 0.4-0.887 1.187-1.527 2.359-1.919v0l10.075-3.373 1.162 3.471-9.896 3.313c-0.364 0.122-0.611 0.309-0.743 0.562-0.131 0.253-0.14 0.549-0.027 0.888v0c0.094 0.282 0.242 0.526 0.444 0.731v0l-2.559 1.013c-0.344-0.464-0.609-0.975-0.796-1.533z" fill="#000000" data-fill-palette-color="accent"></path><path d="M16.18 119.767c0.007 0.862-0.194 1.612-0.604 2.251-0.416 0.641-1.026 1.106-1.829 1.395v0c-1.176 0.422-2.255 0.276-3.236-0.441-0.981-0.716-1.793-1.97-2.436-3.763v0l-2.605-7.254 13.435-4.824 2.468 6.872c0.615 1.712 0.765 3.13 0.452 4.254-0.313 1.124-1.005 1.879-2.076 2.263v0c-0.641 0.23-1.271 0.277-1.888 0.14-0.622-0.128-1.182-0.426-1.681-0.893zM18.447 114.484l-0.936-2.605-2.595 0.932 0.935 2.605c0.46 1.282 1.126 1.767 1.998 1.454v0c0.859-0.308 1.058-1.104 0.598-2.386zM10.709 117.916c0.478 1.332 1.172 1.835 2.081 1.508v0c0.909-0.326 1.124-1.155 0.645-2.487v0l-1.143-3.184-2.726 0.979z" fill="#000000" data-fill-palette-color="accent"></path><path d="M17.724 132.223c0.281 0.456 0.583 0.81 0.908 1.06 0.334 0.253 0.747 0.457 1.239 0.613v0l-0.749 2.836c-1.561-0.267-2.887-1.288-3.978-3.063v0c-0.675-1.099-1.064-2.191-1.165-3.278-0.096-1.09 0.088-2.092 0.551-3.005 0.46-0.919 1.157-1.666 2.092-2.241v0c0.924-0.568 1.895-0.851 2.914-0.848 1.009 0.001 1.967 0.27 2.872 0.808 0.902 0.532 1.656 1.292 2.262 2.278v0c0.561 0.913 0.889 1.864 0.985 2.852 0.09 0.993-0.09 1.938-0.539 2.836-0.444 0.894-1.165 1.648-2.162 2.26v0l-5.415-5.929c-0.531 0.816-0.469 1.756 0.185 2.821zM22.34 128.838c-0.35-0.569-0.811-0.922-1.385-1.058-0.571-0.146-1.203-0.037-1.895 0.326v0l3.1 3.358c0.322-0.361 0.502-0.774 0.541-1.241 0.036-0.472-0.085-0.934-0.361-1.385z" fill="#000000" data-fill-palette-color="accent"></path><path d="M23.307 144.842c-0.871-1.039-1.285-2.073-1.241-3.102 0.053-1.028 0.581-1.963 1.584-2.804v0l8.62-7.228 2.492 2.972-8.468 7.101c-0.314 0.263-0.484 0.544-0.51 0.842-0.031 0.302 0.074 0.598 0.316 0.887v0c0.2 0.238 0.439 0.421 0.72 0.549v0l-2.133 1.995c-0.516-0.327-0.976-0.731-1.38-1.212z" fill="#000000" data-fill-palette-color="accent"></path><path d="M30.072 151.628c-0.983-0.934-1.511-1.914-1.584-2.942-0.064-1.028 0.355-2.016 1.257-2.965v0l7.747-8.156 2.812 2.671-7.61 8.012c-0.282 0.297-0.42 0.596-0.412 0.895 0.003 0.304 0.141 0.586 0.414 0.845v0c0.225 0.214 0.484 0.369 0.777 0.465v0l-1.894 2.223c-0.549-0.267-1.052-0.616-1.507-1.048z" fill="#000000" data-fill-palette-color="accent"></path><path d="M40.689 155.94c0.439 0.308 0.857 0.512 1.254 0.613 0.407 0.1 0.867 0.123 1.38 0.071v0l0.437 2.9c-1.539 0.374-3.161-0.037-4.866-1.233v0c-1.056-0.741-1.846-1.59-2.37-2.547-0.52-0.963-0.749-1.955-0.686-2.977 0.057-1.026 0.401-1.988 1.032-2.887v0c0.623-0.888 1.402-1.533 2.338-1.935 0.927-0.4 1.913-0.533 2.957-0.397 1.039 0.131 2.032 0.529 2.98 1.193v0c0.877 0.615 1.556 1.358 2.036 2.228 0.476 0.875 0.686 1.814 0.629 2.817-0.053 0.997-0.416 1.974-1.088 2.933v0l-7.322-3.295c-0.164 0.959 0.266 1.798 1.289 2.516zM43.583 151.002c-0.547-0.384-1.11-0.524-1.691-0.422-0.582 0.093-1.119 0.443-1.61 1.051v0l4.178 1.853c0.152-0.459 0.154-0.91 0.004-1.354-0.154-0.448-0.448-0.823-0.881-1.128z" fill="#000000" data-fill-palette-color="accent"></path><path d="M58.897 156.369l3.364 1.517-8.703 8.198-3.644-1.643 0.392-11.946 3.627 1.635-0.359 7.238z" fill="#000000" data-fill-palette-color="accent"></path><path d="M60.658 168.974l3.249-10.563 3.707 1.14-3.248 10.563zM66.124 157.816c-0.676-0.208-1.165-0.566-1.466-1.073-0.301-0.508-0.365-1.04-0.194-1.596v0c0.171-0.556 0.524-0.96 1.057-1.211 0.532-0.245 1.136-0.263 1.813-0.055v0c0.676 0.208 1.166 0.552 1.467 1.033 0.306 0.489 0.374 1.011 0.203 1.567v0c-0.179 0.582-0.536 1.001-1.072 1.258-0.529 0.259-1.132 0.285-1.808 0.077z" fill="#000000" data-fill-palette-color="accent"></path><path d="M72.979 172.13c-1.331-0.257-2.305-0.798-2.92-1.624-0.608-0.831-0.787-1.889-0.539-3.175v0l2.129-11.046 3.809 0.734-2.092 10.851c-0.078 0.403-0.033 0.728 0.135 0.976 0.166 0.254 0.435 0.417 0.805 0.489v0c0.305 0.059 0.607 0.05 0.904-0.028v0l-0.396 2.894c-0.607 0.072-1.218 0.048-1.835-0.071z" fill="#000000" data-fill-palette-color="accent"></path><path d="M82.507 173.129c-1.352-0.105-2.38-0.533-3.084-1.283-0.698-0.757-0.996-1.788-0.895-3.094v0l0.869-11.216 3.867 0.3-0.853 11.018c-0.032 0.409 0.05 0.727 0.244 0.954 0.194 0.234 0.479 0.365 0.855 0.394v0c0.31 0.024 0.608-0.019 0.896-0.129v0l-0.067 2.92c-0.595 0.14-1.205 0.185-1.832 0.136z" fill="#000000" data-fill-palette-color="accent"></path><path d="M93.465 169.783c0.534-0.038 0.988-0.142 1.361-0.314 0.379-0.179 0.751-0.451 1.116-0.815v0l2.168 1.976c-0.959 1.261-2.477 1.964-4.556 2.11v0c-1.286 0.091-2.435-0.071-3.445-0.483-1.011-0.419-1.814-1.046-2.409-1.879-0.602-0.833-0.942-1.797-1.019-2.892v0c-0.076-1.082 0.122-2.074 0.596-2.975 0.467-0.895 1.149-1.619 2.044-2.173 0.889-0.553 1.911-0.87 3.066-0.952v0c1.069-0.075 2.064 0.073 2.985 0.446 0.922 0.379 1.676 0.976 2.264 1.79 0.587 0.807 0.922 1.795 1.004 2.963v0l-7.761 2.058c0.477 0.848 1.34 1.228 2.586 1.14zM92.6 164.126c-0.666 0.047-1.193 0.293-1.579 0.738-0.393 0.439-0.589 1.049-0.587 1.831v0l4.41-1.196c-0.171-0.452-0.454-0.803-0.849-1.054-0.402-0.25-0.867-0.357-1.395-0.319z" fill="#000000" data-fill-palette-color="accent"></path><path d="M111.084 169.301l-5.095-13.335 6.302-2.407c1.464-0.559 2.863-0.779 4.197-0.659 1.338 0.112 2.511 0.549 3.517 1.311 1.009 0.769 1.77 1.826 2.285 3.173v0c0.515 1.347 0.651 2.64 0.41 3.879-0.242 1.239-0.823 2.35-1.743 3.332-0.917 0.973-2.107 1.74-3.572 2.299v0zM113.705 164.848l2.381-0.909c1.143-0.437 1.936-1.112 2.381-2.025 0.446-0.907 0.451-1.932 0.015-3.075v0c-0.437-1.143-1.125-1.907-2.065-2.29-0.94-0.384-1.981-0.358-3.124 0.078v0l-2.382 0.91z" fill="#000000" data-fill-palette-color="accent"></path><path d="M132.156 156.145c0.448-0.293 0.793-0.605 1.035-0.937 0.243-0.341 0.436-0.759 0.578-1.255v0l2.856 0.67c-0.224 1.568-1.207 2.922-2.951 4.062v0c-1.08 0.705-2.161 1.124-3.245 1.255-1.087 0.126-2.094-0.03-3.019-0.468-0.931-0.434-1.698-1.111-2.299-2.03v0c-0.593-0.908-0.903-1.871-0.928-2.889-0.027-1.009 0.215-1.974 0.729-2.893 0.507-0.916 1.245-1.691 2.214-2.324v0c0.897-0.586 1.838-0.941 2.824-1.064 0.99-0.117 1.939 0.036 2.849 0.461 0.906 0.419 1.679 1.119 2.32 2.099v0l-5.777 5.576c0.83 0.508 1.768 0.421 2.814-0.263zM128.646 151.625c-0.559 0.365-0.899 0.836-1.02 1.413-0.13 0.575-0.004 1.203 0.378 1.886v0l3.271-3.192c-0.369-0.312-0.788-0.48-1.255-0.507-0.473-0.023-0.931 0.111-1.374 0.4z" fill="#000000" data-fill-palette-color="accent"></path><path d="M138.858 139.673c0.991-0.945 2.071-1.412 3.24-1.403 1.164 0.014 2.315 0.617 3.451 1.809v0l4.359 4.574-2.8 2.669-3.922-4.114c-1.045-1.096-2.005-1.227-2.881-0.392v0c-0.483 0.461-0.718 0.986-0.705 1.576 0.009 0.594 0.315 1.207 0.917 1.839v0l3.683 3.863-2.808 2.676-7.625-7.999 2.672-2.546 0.828 0.869c0.006-0.627 0.144-1.234 0.415-1.822 0.271-0.578 0.663-1.111 1.176-1.599z" fill="#000000" data-fill-palette-color="accent"></path><path d="M154.027 134.064l2.754 0.853c-0.033 0.388-0.148 0.801-0.343 1.241-0.192 0.434-0.448 0.866-0.768 1.296v0c-0.858 1.151-1.799 1.827-2.824 2.028-1.026 0.192-2.101-0.131-3.224-0.969v0l-7.604-5.668 2.318-3.11 2.307 1.72 1.5-2.012 2.322 1.731-1.5 2.012 2.943 2.194c0.329 0.245 0.639 0.349 0.931 0.311 0.294-0.029 0.547-0.186 0.761-0.473v0c0.269-0.361 0.411-0.745 0.427-1.154z" fill="#000000" data-fill-palette-color="accent"></path><path d="M152.72 120.119l1.803-3.423 9.778 5.149-1.719 3.266-0.975-0.514c0.419 1.035 0.289 2.197-0.388 3.484v0c-0.468 0.889-1.099 1.589-1.891 2.099-0.801 0.513-1.7 0.779-2.697 0.8-0.992 0.023-1.993-0.231-3.005-0.765v0c-1.012-0.533-1.786-1.214-2.322-2.041-0.542-0.831-0.825-1.72-0.849-2.667-0.022-0.938 0.202-1.852 0.67-2.742v0c0.61-1.159 1.426-1.891 2.447-2.198v0zM158.877 125.929c0.317-0.603 0.37-1.207 0.158-1.812-0.212-0.605-0.684-1.1-1.415-1.485v0c-0.72-0.379-1.386-0.483-2-0.313-0.613 0.17-1.078 0.557-1.395 1.16v0c-0.314 0.597-0.368 1.196-0.162 1.798 0.206 0.602 0.669 1.092 1.389 1.471v0c0.731 0.385 1.407 0.494 2.025 0.327 0.619-0.167 1.085-0.55 1.4-1.146z" fill="#000000" data-fill-palette-color="accent"></path><path d="M167.551 113.352c-0.435 1.284-1.104 2.175-2.006 2.672-0.906 0.489-1.979 0.523-3.219 0.103v0l-10.654-3.612 1.245-3.673 10.466 3.548c0.388 0.132 0.717 0.131 0.985-0.001 0.275-0.13 0.472-0.374 0.594-0.731v0c0.1-0.294 0.132-0.594 0.095-0.9v0l2.813 0.786c-0.011 0.611-0.118 1.213-0.319 1.808z" fill="#000000" data-fill-palette-color="accent"></path><path d="M1.65 88.235c0-3.265 2.647-5.912 5.912-5.912 3.265 0 5.912 2.647 5.911 5.912 0 3.265-2.647 5.912-5.911 5.912-3.265 0-5.912-2.647-5.912-5.912z" fill="#000000" data-fill-palette-color="accent"></path><path d="M159.675 88.235c0-3.265 2.647-5.912 5.911-5.912 3.265 0 5.912 2.647 5.912 5.912 0 3.265-2.647 5.912-5.912 5.912-3.265 0-5.912-2.647-5.911-5.912z" fill="#000000" data-fill-palette-color="accent"></path></g><g id="text-1"></g></svg></g></svg></g></svg></g><defs></defs></svg><rect width="395.52" height="116.08348442206982" fill="none" stroke="none" visibility="hidden"></rect></g></svg></g></svg>